<svg width="22" height="22" viewBox="0 0 22 22" fill="none" xmlns="http://www.w3.org/2000/svg">
<mask id="mask0_807_453" style="mask-type:alpha" maskUnits="userSpaceOnUse" x="0" y="0" width="22" height="22">
<rect width="22" height="22" fill="#D9D9D9"/>
</mask>
<g mask="url(#mask0_807_453)">
<path d="M19.2042 20.5101L16.5 17.8059V19.8455H14.6667V14.6663H19.8459V16.4997H17.7834L20.4875 19.2038L19.2042 20.5101ZM11 20.1663C9.73199 20.1663 8.54032 19.9257 7.42504 19.4445C6.30976 18.9632 5.33962 18.3101 4.51462 17.4851C3.68962 16.6601 3.0365 15.69 2.55525 14.5747C2.074 13.4594 1.83337 12.2677 1.83337 10.9997C1.83337 9.73162 2.074 8.53995 2.55525 7.42467C3.0365 6.3094 3.68962 5.33926 4.51462 4.51426C5.33962 3.68926 6.30976 3.03613 7.42504 2.55488C8.54032 2.07363 9.73199 1.83301 11 1.83301C12.2681 1.83301 13.4598 2.07363 14.575 2.55488C15.6903 3.03613 16.6605 3.68926 17.4855 4.51426C18.3105 5.33926 18.9636 6.3094 19.4448 7.42467C19.9261 8.53995 20.1667 9.73162 20.1667 10.9997C20.1667 11.3052 20.1514 11.6108 20.1209 11.9163C20.0903 12.2219 20.0445 12.5275 19.9834 12.833H18.1042C18.1806 12.5275 18.2379 12.2219 18.2761 11.9163C18.3143 11.6108 18.3334 11.3052 18.3334 10.9997C18.3334 10.6941 18.3143 10.3886 18.2761 10.083C18.2379 9.77745 18.1806 9.4719 18.1042 9.16634H14.9875C15.0334 9.4719 15.0677 9.77745 15.0907 10.083C15.1136 10.3886 15.125 10.6941 15.125 10.9997C15.125 11.3052 15.1136 11.6108 15.0907 11.9163C15.0677 12.2219 15.0334 12.5275 14.9875 12.833H13.1542C13.2 12.5275 13.2344 12.2219 13.2573 11.9163C13.2802 11.6108 13.2917 11.3052 13.2917 10.9997C13.2917 10.6941 13.2802 10.3886 13.2573 10.083C13.2344 9.77745 13.2 9.4719 13.1542 9.16634H8.84587C8.80004 9.4719 8.76567 9.77745 8.74275 10.083C8.71983 10.3886 8.70837 10.6941 8.70837 10.9997C8.70837 11.3052 8.71983 11.6108 8.74275 11.9163C8.76567 12.2219 8.80004 12.5275 8.84587 12.833H11.9167V14.6663H9.25837C9.44171 15.3233 9.67851 15.9535 9.96879 16.557C10.2591 17.1604 10.6028 17.7372 11 18.2872C11.3056 18.2872 11.6112 18.2681 11.9167 18.2299C12.2223 18.1917 12.5278 18.1573 12.8334 18.1268V20.0059C12.5278 20.0365 12.2223 20.0709 11.9167 20.109C11.6112 20.1472 11.3056 20.1663 11 20.1663ZM3.89587 12.833H7.01254C6.96671 12.5275 6.93233 12.2219 6.90942 11.9163C6.8865 11.6108 6.87504 11.3052 6.87504 10.9997C6.87504 10.6941 6.8865 10.3886 6.90942 10.083C6.93233 9.77745 6.96671 9.4719 7.01254 9.16634H3.89587C3.81949 9.4719 3.76219 9.77745 3.724 10.083C3.6858 10.3886 3.66671 10.6941 3.66671 10.9997C3.66671 11.3052 3.6858 11.6108 3.724 11.9163C3.76219 12.2219 3.81949 12.5275 3.89587 12.833ZM4.67504 7.33301H7.37921C7.51671 6.76773 7.68858 6.21391 7.89483 5.67155C8.10108 5.12919 8.34171 4.59829 8.61671 4.07884C7.77643 4.35384 7.02018 4.77016 6.34796 5.3278C5.67574 5.88544 5.1181 6.55384 4.67504 7.33301ZM8.61671 17.9205C8.34171 17.4011 8.10108 16.8702 7.89483 16.3278C7.68858 15.7854 7.51671 15.2316 7.37921 14.6663H4.67504C5.1181 15.4455 5.67574 16.1139 6.34796 16.6715C7.02018 17.2292 7.77643 17.6455 8.61671 17.9205ZM9.25837 7.33301H12.7417C12.5584 6.67606 12.3216 6.04586 12.0313 5.44238C11.741 4.83891 11.3973 4.26217 11 3.71217C10.6028 4.26217 10.2591 4.83891 9.96879 5.44238C9.67851 6.04586 9.44171 6.67606 9.25837 7.33301ZM14.6209 7.33301H17.325C16.882 6.55384 16.3243 5.88544 15.6521 5.3278C14.9799 4.77016 14.2237 4.35384 13.3834 4.07884C13.6584 4.59829 13.899 5.12919 14.1052 5.67155C14.3115 6.21391 14.4834 6.76773 14.6209 7.33301Z" fill="white"/>
</g>
</svg>
