<svg width="135" height="44" viewBox="0 0 135 44" fill="none" xmlns="http://www.w3.org/2000/svg">
<path d="M40 21.5055V21.5179C40 21.6324 39.9545 21.7422 39.8736 21.8231L29.6432 32.0535C29.6027 32.094 29.5478 32.1167 29.4906 32.1167H29.4258C29.3066 32.1167 29.21 32.0201 29.21 31.9009V21.518C29.21 21.6324 29.1645 21.7422 29.0836 21.8231L18.9164 31.9903C18.8355 32.0712 18.7257 32.1167 18.6112 32.1167H18.5988C18.4843 32.1167 18.3746 32.0712 18.2936 31.9903L8.12641 21.8231C8.04547 21.7422 8 21.6324 8 21.5179V21.5055C8 21.3911 8.04547 21.2813 8.12641 21.2003L18.2936 11.0331C18.3746 10.9522 18.4843 10.9067 18.5988 10.9067H18.6112C18.7257 10.9067 18.8355 10.9522 18.9164 11.0331L29.0836 21.2003C29.1645 21.2813 29.21 21.391 29.21 21.5055V11.1225C29.21 11.0033 29.3066 10.9067 29.4258 10.9067H29.4906C29.5478 10.9067 29.6027 10.9295 29.6432 10.9699L39.8736 21.2003C39.9545 21.2813 40 21.3911 40 21.5055Z" fill="white"/>
<path fill-rule="evenodd" clip-rule="evenodd" d="M57.0284 30.2704C58.5862 31.2169 60.2919 31.6902 62.1456 31.6902H63.8316C65.7049 31.6902 67.4205 31.2169 68.9783 30.2704C70.5558 29.3042 71.7981 28.0126 72.7052 26.3956C73.6123 24.7589 74.0659 22.994 74.0659 21.101C74.0659 19.2079 73.6123 17.4529 72.7052 15.8359C71.7981 14.2189 70.5657 12.9273 69.0079 11.9611C67.45 10.9948 65.7345 10.5117 63.8611 10.5117H62.116C60.2624 10.5117 58.5567 10.9948 56.9988 11.9611C55.4607 12.9076 54.2381 14.1992 53.3311 15.8359C52.4437 17.4529 52 19.2079 52 21.101C52 22.994 52.4437 24.7589 53.3311 26.3956C54.2381 28.0126 55.4706 29.3042 57.0284 30.2704ZM66.8782 27.2534C65.9514 27.8647 64.9358 28.1703 63.8316 28.1703H62.1456C61.0413 28.1703 60.0356 27.8647 59.1285 27.2534C58.2214 26.6224 57.5017 25.7744 56.9693 24.7096C56.4368 23.625 56.1706 22.4221 56.1706 21.101C56.1706 19.7798 56.4368 18.5769 56.9693 17.4923C57.5017 16.4078 58.2214 15.5598 59.1285 14.9486C60.0356 14.3373 61.0413 14.0316 62.1456 14.0316H63.8611C64.9654 14.0316 65.981 14.3471 66.9078 14.9781C67.8346 15.6091 68.5642 16.4669 69.0966 17.5515C69.6487 18.6163 69.9248 19.7995 69.9248 21.101C69.9248 22.4024 69.6487 23.5954 69.0966 24.68C68.5642 25.7646 67.8247 26.6224 66.8782 27.2534Z" fill="white"/>
<path d="M115.078 30.6845C116.183 31.355 117.464 31.6902 118.924 31.6902H119.959C121.181 31.6902 122.276 31.4338 123.242 30.9211C124.208 30.3887 124.987 29.6591 125.579 28.7323C126.17 27.8055 126.545 26.7702 126.703 25.6265H122.917C122.739 26.4547 122.394 27.1252 121.882 27.6379C121.389 28.1506 120.748 28.4069 119.959 28.4069H118.924C117.859 28.4069 117.021 27.983 116.409 27.135C115.818 26.2871 115.522 25.242 115.522 23.9997C115.522 22.7574 115.828 21.7123 116.439 20.8643C117.05 20.0164 117.898 19.5924 118.983 19.5924H120.018C120.807 19.5924 121.458 19.8685 121.97 20.4206C122.483 20.9531 122.789 21.6235 122.887 22.432H126.644C126.565 21.2291 126.23 20.1643 125.638 19.2375C125.046 18.3107 124.258 17.5909 123.272 17.0782C122.305 16.5655 121.231 16.3092 120.048 16.3092H118.983C117.524 16.3092 116.242 16.6543 115.138 17.3444C114.033 18.0149 113.175 18.9318 112.564 20.0953C111.973 21.2587 111.677 22.5602 111.677 23.9997C111.677 25.4195 111.973 26.7209 112.564 27.9041C113.156 29.0675 113.994 29.9943 115.078 30.6845Z" fill="white"/>
<path d="M105.607 16.5458H109.423V31.4536H105.607V16.5458Z" fill="white"/>
<path d="M109.57 10.7484V14.1795H105.489V10.7484H109.57Z" fill="white"/>
<path d="M99.2449 16.5458V11.3399L95.4292 12.9372V16.5458H92.2347V19.7403H95.4292V27.0463C95.4292 28.5253 95.8137 29.6295 96.5828 30.3591C97.3518 31.0888 98.4463 31.4536 99.866 31.4536H103.711V28.259H100.931C100.398 28.259 99.9844 28.1407 99.6886 27.9041C99.3928 27.6478 99.2449 27.2238 99.2449 26.6322V19.7403H103.83V16.5458H99.2449Z" fill="white"/>
<path fill-rule="evenodd" clip-rule="evenodd" d="M85.029 16.3092C86.3108 16.3092 87.4742 16.6444 88.5193 17.3149C89.5842 17.9853 90.4222 18.9121 91.0335 20.0953C91.6448 21.2587 91.9505 22.5602 91.9505 23.9997C91.9505 25.4392 91.6448 26.7505 91.0335 27.9337C90.4222 29.0971 89.5842 30.0141 88.5193 30.6845C87.4742 31.355 86.3108 31.6902 85.029 31.6902H84.0529C83.343 31.6902 82.6134 31.5226 81.8641 31.1874C81.1147 30.8324 80.5133 30.369 80.0598 29.7971V37.4877H76.2441V16.5458H80.0598V18.2318C80.4541 17.6994 81.026 17.2458 81.7753 16.8712C82.5444 16.4965 83.3036 16.3092 84.0529 16.3092H85.029ZM83.4022 19.5924C82.7317 19.5924 82.1204 19.7798 81.5683 20.1544C81.0162 20.5291 80.5823 21.0517 80.2668 21.7221C79.9513 22.3926 79.7936 23.1518 79.7936 23.9997C79.7936 24.8476 79.9513 25.6068 80.2668 26.2773C80.5823 26.9477 81.0162 27.4703 81.5683 27.8449C82.1204 28.2196 82.7317 28.4069 83.4022 28.4069H84.4966C85.1276 28.4069 85.7192 28.2196 86.2713 27.8449C86.8235 27.4506 87.2573 26.9181 87.5728 26.2477C87.908 25.5772 88.0757 24.8279 88.0757 23.9997C88.0757 23.1715 87.908 22.4221 87.5728 21.7517C87.2573 21.0812 86.8235 20.5587 86.2713 20.184C85.7192 19.7896 85.1276 19.5924 84.4966 19.5924H83.4022Z" fill="white"/>
</svg>
